<svg data-v-0dd9719b="" version="1.0" xmlns="http://www.w3.org/2000/svg" xmlns:xlink="http://www.w3.org/1999/xlink" width="100%" height="100%" viewBox="0 0 340.000000 250.000000" preserveAspectRatio="xMidYMid meet" color-interpolation-filters="sRGB" style="margin: auto;"> <rect data-v-0dd9719b="" x="0" y="0" width="100%" height="100%" fill="#fff" fill-opacity="1" class="background"></rect> <rect data-v-0dd9719b="" x="0" y="0" width="100%" height="100%" fill="url(#watermark)" fill-opacity="1" class="watermarklayer"></rect> <g data-v-0dd9719b="" fill="#8cc63f" class="icon-text-wrapper icon-svg-group iconsvg" transform="translate(47.579994201660156,95.13885498046875)"><g class="iconsvg-imagesvg" transform="translate(0,0)"><g><rect fill="#8cc63f" fill-opacity="0" stroke-width="2" x="0" y="0" width="60" height="59.72229134524461" class="image-rect"></rect> <svg x="0" y="0" width="60" height="59.72229134524461" filtersec="colorsb485231671" class="image-svg-svg primary" style="overflow: visible;"><svg xmlns="http://www.w3.org/2000/svg" viewBox="0 0 88.51000213623047 88.0999984741211"><g><path d="M44.26 0H0v88.1h38.29V21.25a6 6 0 0 1 11.93 0V88.1h38.29V44.25A44.25 44.25 0 0 0 44.26 0z" fill="#8cc63f"></path></g></svg></svg> <!----></g></g> <g transform="translate(67,5.034893035888672)"><g data-gra="path-name" fill-rule="" class="tp-name iconsvg-namesvg" transform="translate(0,0)"><g transform="scale(1)"><g><path d="M18.18-12.06L20.41-16.85 14.8-16.85 17.32-13.25 15.37-12.06 18.18-12.06ZM33.59-27.5L32.76-23.36Q28.62-23.44 19.55-23.44L19.55-23.44 19.22-21.1 30.78-21.1Q31.9-21.1 31.9-19.84L31.9-19.84 31.9 3.67 25.56 1.62 26.82 0.65 26.82-16.81Q25.09-16.85 21.49-16.85L21.49-16.85 24.77-15.84 22.79-12.06 25.49-12.06 25.09-8.5Q21.71-8.57 19.69-8.57L19.69-8.57 19.69-6.44 26.39-6.44 25.96-2.41Q22-2.48 19.69-2.48L19.69-2.48 19.69 2.34 15.34 2.34 15.34-2.45Q13.1-2.45 9.07-2.38L9.07-2.38 9.25-5.18 8.86-6.44 15.34-6.44 15.34-8.53Q13.36-8.53 9.83-8.46L9.83-8.46 10.01-10.94 9.65-12.06 12.67-12.06 10.62-15.12 13.61-16.81Q11.84-16.81 8.53-16.74L8.53-16.74 8.53 3.24 3.71 3.24 3.71-18.11Q3.71-20.3 3.42-21.53L3.42-21.53Q4.57-21.24 5.29-21.1L5.29-21.1 14.18-21.1 14.47-23.44Q5.83-23.36 1.8-23.29L1.8-23.29 1.91-25.92 1.4-27.5 14.94-27.5 15.34-31.03 20.56-30.56 20.12-27.5 33.59-27.5ZM46.84-8.03L49.28-3.96 41.33 1.98 40.32-0.97 38.74-2.63 46.84-8.03ZM47.23-16.67L47.23-13 60.7-13 60.73-16.67 47.23-16.67ZM65.45-8.93L56.56-8.93 56.56 3.67 49.03 0.83 51.16 0.4 51.16-8.93 42.52-8.93 43.02-20.41 63.86-20.3Q65.02-20.3 65.38-20.02L65.38-20.02Q65.74-19.73 65.7-18.83L65.7-18.83Q65.52-13.25 65.45-8.93L65.45-8.93ZM58.21-4.28L61.24-8.06 69.23-1.76 66.24 2.2 58.21-4.28ZM56.81-26.89L70.74-26.89 69.8-22.18Q56.23-22.43 38.16-22.1L38.16-22.1 38.27-25.09 37.69-26.89 51.23-26.89 50.47-30.02 55.76-30.89 56.81-26.89ZM91.76-16.56L97.09-16.56 97.09-24.34Q95.36-24.37 91.76-24.37L91.76-24.37 91.76-16.56ZM86.8-16.56L86.8-24.37 81.58-24.34 81.58-16.56 86.8-16.56ZM81.58-3.42L103.5-3.42Q105.48-3.42 106.88-4.39L106.88-4.39 105.84 1.62 82.69 1.62Q79.49 1.62 77.76-0.07L77.76-0.07Q76.07-1.69 76.07-4.61L76.07-4.61 76.07-29.59Q77.22-29.12 78.37-28.91L78.37-28.91 100.19-28.91 100.19-28.87 100.8-28.87Q102.13-28.87 102.13-27.54L102.13-27.54 102.13-11.92 97.09-11.92 97.09-11.99Q89.89-12.1 81.58-11.92L81.58-11.92 81.58-3.42ZM119.99-10.8L131.36-10.8 131.36-15.26Q125.1-15.34 119.99-15.23L119.99-15.23 119.99-10.8ZM131.4-24.12L119.99-24.16 119.99-19.94 131.4-19.94 131.4-24.12ZM114.95-28.55L119.99-28.51Q125.14-28.48 134.42-28.37L134.42-28.37Q136.19-28.3 136.84-27.76L136.84-27.76Q137.52-27.18 137.48-25.67L137.48-25.67 137.09-6.16 114.3-6.16 114.95-28.55ZM109.98-3.28L142.42-3.28 141.44 1.66Q128.16 1.4 110.48 1.73L110.48 1.73 110.59-1.37 109.98-3.28ZM166.28-18.32L179.24-4.18 177.16-3.64 175.46-0.11 164.34-12.35 164.34 3.24 159.01 3.24 159.01-11.81Q153.54-5.15 148.36 0.11L148.36 0.11 146.56-2.77 144.54-2.99Q151.38-10.58 157.25-18.29L157.25-18.29Q153.32-18.25 146.74-18.11L146.74-18.11 146.84-21.53 146.2-23.51 159.01-23.51 159.01-26.14Q159.01-29.09 158.58-30.92L158.58-30.92Q162.54-29.66 164.34-30.02L164.34-30.02 164.34-23.51 177.52-23.51 176.54-18.22Q171.68-18.32 166.28-18.32L166.28-18.32Z" transform="translate(-1.399999976158142, 31.030000686645508)"></path></g> <!----> <!----> <!----> <!----> <!----> <!----> <!----></g></g> <g data-gra="path-slogan" fill-rule="" class="tp-slogan iconsvg-slogansvg" fill="#8cc63f" transform="translate(36.350006103515625,40.70000076293945)"><!----> <!----> <g transform="scale(1, 1)"><g transform="scale(1)"><path d="M2.30-8.58L6.61-1.64L6.61-8.58L7.73-8.58L7.73 0L6.42 0L2.06-6.94L2.02-6.94L2.02 0L0.89 0L0.89-8.58L2.30-8.58ZM15.19 0L14.34-2.48L10.88-2.48L9.98 0L8.81 0L12.05-8.58L13.36-8.58L16.45 0L15.19 0ZM12.61-7.31L11.25-3.52L13.92-3.52L12.66-7.31L12.61-7.31ZM18.89-8.58L23.20-1.64L23.20-8.58L24.33-8.58L24.33 0L23.02 0L18.66-6.94L18.61-6.94L18.61 0L17.48 0L17.48-8.58L18.89-8.58ZM25.41-1.92L25.41-2.77L26.48-2.77L26.48-2.16Q26.48-0.75 27.80-0.75L27.80-0.75Q29.16-0.75 29.16-2.25L29.16-2.25L29.16-8.58L30.33-8.58L30.33-2.30Q30.28 0.09 27.84 0.14L27.84 0.14Q25.55 0.09 25.41-1.92L25.41-1.92ZM32.30-8.58L33.47-8.58L33.47 0L32.30 0L32.30-8.58ZM36.84-8.58L41.16-1.64L41.16-8.58L42.28-8.58L42.28 0L40.97 0L36.61-6.94L36.56-6.94L36.56 0L35.44 0L35.44-8.58L36.84-8.58ZM50.48-3.61L47.86-3.61L47.86-4.59L51.61-4.59L51.61 0L50.86 0L50.58-1.08Q49.59 0.09 47.77 0.14L47.77 0.14Q46.03 0.14 45.09-0.75L45.09-0.75Q43.69-2.06 43.73-4.36L43.73-4.36Q44.06-8.63 47.81-8.81L47.81-8.81Q51-8.63 51.47-6L51.47-6L50.34-6Q49.88-7.78 47.77-7.83L47.77-7.83Q45.09-7.64 44.95-4.31L44.95-4.31Q44.95-0.75 47.81-0.75L47.81-0.75Q48.84-0.75 49.59-1.31L49.59-1.31Q50.53-2.06 50.48-3.61L50.48-3.61ZM59.95-7.64L57.89-7.64L57.89-4.97L59.95-4.97Q61.78-4.92 61.73-6.38L61.73-6.38Q61.73-7.64 59.95-7.64L59.95-7.64ZM60.42 0L56.72 0L56.72-8.58L60.52-8.58Q62.81-8.48 62.91-6.42L62.91-6.42Q62.91-5.16 61.78-4.64L61.78-4.64Q63.38-4.08 63.38-2.53L63.38-2.53Q63.23-0.09 60.42 0L60.42 0ZM60.14-3.98L57.89-3.98L57.89-0.98L60.38-0.98Q62.16-1.03 62.20-2.53L62.20-2.53Q62.20-3.98 60.14-3.98L60.14-3.98ZM70.36 0L69.52-2.48L66.05-2.48L65.16 0L63.98 0L67.22-8.58L68.53-8.58L71.63 0L70.36 0ZM67.78-7.31L66.42-3.52L69.09-3.52L67.83-7.31L67.78-7.31ZM76.17 0L72.70 0L72.70-8.58L76.22-8.58Q79.69-8.39 79.83-4.41L79.83-4.41Q79.64-0.09 76.17 0L76.17 0ZM76.03-7.64L73.88-7.64L73.88-0.98L76.13-0.98Q78.56-1.13 78.66-4.31L78.66-4.31Q78.61-7.55 76.03-7.64L76.03-7.64ZM86.95 0L86.11-2.48L82.64-2.48L81.75 0L80.58 0L83.81-8.58L85.13-8.58L88.22 0L86.95 0ZM84.38-7.31L83.02-3.52L85.69-3.52L84.42-7.31L84.38-7.31ZM97.50-8.58L97.50 0L96.38 0L96.38-5.06Q96.38-5.77 96.38-7.22L96.38-7.22L93.94 0L92.77 0L90.38-7.22L90.33-7.22Q90.33-6.70 90.38-5.67L90.38-5.67Q90.38-5.16 90.38-5.06L90.38-5.06L90.38 0L89.20 0L89.20-8.58L90.89-8.58L93.38-1.31L95.81-8.58L97.50-8.58ZM104.86-3.19L104.86-8.58L106.03-8.58L106.03-3.05Q105.89 0.05 102.52 0.14L102.52 0.14Q99.38 0.05 99.23-2.86L99.23-2.86L99.23-8.58L100.41-8.58L100.41-3.19Q100.45-0.84 102.56-0.80L102.56-0.80Q104.86-0.84 104.86-3.19L104.86-3.19Z" transform="translate(-0.890625, 8.8125)"></path></g></g></g></g></g><defs v-gra="od"></defs></svg>